<svg xmlns="http://www.w3.org/2000/svg" version="1.1" xmlns:xlink="http://www.w3.org/1999/xlink" xmlns:svgjs="http://svgjs.dev/svgjs" width="1000" height="1000" viewBox="0 0 1000 1000"><rect width="1000" height="1000" fill="#ffffff"></rect><g transform="matrix(0.7,0,0,0.7,149.57576597317478,444.7192638208485)"><svg viewBox="0 0 396 63" data-background-color="#ffffff" preserveAspectRatio="xMidYMid meet" height="159" width="1000" xmlns="http://www.w3.org/2000/svg" xmlns:xlink="http://www.w3.org/1999/xlink"><g id="tight-bounds" transform="matrix(1,0,0,1,0.23999524946111706,-0.20901725708404228)"><svg viewBox="0 0 395.52 63.41803451416806" height="63.41803451416806" width="395.52"><g><svg viewBox="0 0 510.73278586121523 81.89135679931168" height="63.41803451416806" width="395.52"><g><rect width="5.343738833605025" height="71.1068221122822" x="95.88020191346097" y="5.392267343514739" fill="#50a060" opacity="1" stroke-width="0" stroke="transparent" fill-opacity="1" class="rect-o-0" data-fill-palette-color="primary" rx="1%" id="o-0" data-palette-color="#50a060"></rect></g><g transform="matrix(1,0,0,1,115.21278586121528,11.317835852871585)"><svg viewBox="0 0 395.52 59.25568509356851" height="59.25568509356851" width="395.52"><g id="textblocktransform"><svg viewBox="0 0 395.52 59.25568509356851" height="59.25568509356851" width="395.52" id="textblock"><g><svg viewBox="0 0 395.52 59.25568509356851" height="59.25568509356851" width="395.52"><g transform="matrix(1,0,0,1,0,0)"><svg width="395.52" viewBox="4.880000114440918 -34.18000030517578 232.42999267578125 34.83000183105469" height="59.25568509356851" data-palette-color="#50a060"><path d="M9.15-17.25L23.23-31.85 29.78-31.85 9.15-10.68 9.15-17.25ZM11.65-15.43L15-18.53 30.65 0 24.48 0 11.65-15.43ZM4.88 0L4.88-31.85 9.68-31.85 9.68 0 4.88 0ZM55.47 0L51.32 0 50.72-5.53 50.72-15.55Q50.72-18.5 49.5-19.84 48.27-21.18 45.62-21.18L45.62-21.18Q44.12-21.18 42.96-20.74 41.8-20.3 41.13-19.43 40.47-18.55 40.47-17.23L40.47-17.23 35.22-17.23Q35.22-19.88 36.52-21.53 37.82-23.18 40.16-23.94 42.5-24.7 45.62-24.7L45.62-24.7Q48.55-24.7 50.77-23.74 53-22.78 54.23-20.73 55.47-18.68 55.47-15.43L55.47-15.43 55.47 0ZM43.27 0.65L43.27 0.65Q40.25 0.65 38.25-0.41 36.25-1.48 35.26-3.2 34.27-4.93 34.27-6.88L34.27-6.88Q34.27-9.25 35.48-10.79 36.7-12.33 38.85-13.08 41-13.83 43.8-13.83L43.8-13.83Q45.72-13.83 47.55-13.48 49.37-13.13 51.15-12.55L51.15-12.55 51.15-9.68Q49.7-10.2 47.94-10.51 46.17-10.83 44.65-10.83L44.65-10.83Q42.37-10.83 40.85-9.93 39.32-9.03 39.32-6.88L39.32-6.88Q39.32-5.3 40.52-4.16 41.72-3.03 44.32-3.03L44.32-3.03Q46.22-3.03 47.67-3.89 49.12-4.75 49.92-6.05 50.72-7.35 50.72-8.65L50.72-8.65 51.87-8.65Q51.87-6.15 50.86-4.04 49.85-1.93 47.92-0.64 46 0.65 43.27 0.65ZM86.07 0L81.34 0 81.34-14.1Q81.34-17.23 79.86-18.84 78.37-20.45 75.84-20.45L75.84-20.45Q73.84-20.45 72.36-19.36 70.87-18.28 70.06-16.19 69.25-14.1 69.25-11.1L69.25-11.1 67.55-11.1Q67.55-15.53 68.68-18.55 69.82-21.58 71.95-23.14 74.07-24.7 77.05-24.7L77.05-24.7Q79.95-24.7 81.96-23.4 83.97-22.1 85.02-19.71 86.07-17.32 86.07-14.1L86.07-14.1 86.07 0ZM69.25 0L64.5 0 64.5-24.05 68.62-24.05 69.25-18.85 69.25 0ZM106.67 0.65L106.67 0.65Q104.32 0.65 102.41-0.61 100.49-1.88 99.36-4.35 98.22-6.83 98.22-10.43L98.22-10.43 99.84-10.43Q99.84-8.33 100.75-6.8 101.67-5.28 103.09-4.46 104.52-3.65 106.07-3.65L106.07-3.65Q107.92-3.65 109.41-4.67 110.89-5.7 111.78-7.61 112.67-9.53 112.67-12.13L112.67-12.13Q112.67-14.7 111.79-16.56 110.92-18.43 109.42-19.44 107.92-20.45 106.02-20.45L106.02-20.45Q104.42-20.45 103-19.68 101.59-18.9 100.72-17.39 99.84-15.88 99.84-13.7L99.84-13.7 98.22-13.7Q98.22-17.23 99.32-19.68 100.42-22.13 102.38-23.41 104.34-24.7 106.99-24.7L106.99-24.7Q109.87-24.7 112.25-23.16 114.64-21.63 116.08-18.8 117.52-15.98 117.52-12.13L117.52-12.13Q117.52-8.25 116.04-5.39 114.57-2.53 112.11-0.94 109.64 0.65 106.67 0.65ZM98.32 0L95.09 0 95.09-34.18 99.84-34.18 99.84-5.78 98.32 0ZM144.39 0L140.24 0 139.64-5.53 139.64-15.55Q139.64-18.5 138.42-19.84 137.19-21.18 134.54-21.18L134.54-21.18Q133.04-21.18 131.88-20.74 130.72-20.3 130.05-19.43 129.39-18.55 129.39-17.23L129.39-17.23 124.14-17.23Q124.14-19.88 125.44-21.53 126.74-23.18 129.08-23.94 131.42-24.7 134.54-24.7L134.54-24.7Q137.47-24.7 139.69-23.74 141.92-22.78 143.15-20.73 144.39-18.68 144.39-15.43L144.39-15.43 144.39 0ZM132.19 0.65L132.19 0.65Q129.17 0.65 127.17-0.41 125.17-1.48 124.18-3.2 123.19-4.93 123.19-6.88L123.19-6.88Q123.19-9.25 124.4-10.79 125.62-12.33 127.77-13.08 129.92-13.83 132.72-13.83L132.72-13.83Q134.64-13.83 136.47-13.48 138.29-13.13 140.06-12.55L140.06-12.55 140.06-9.68Q138.62-10.2 136.85-10.51 135.09-10.83 133.56-10.83L133.56-10.83Q131.29-10.83 129.77-9.93 128.24-9.03 128.24-6.88L128.24-6.88Q128.24-5.3 129.44-4.16 130.64-3.03 133.24-3.03L133.24-3.03Q135.14-3.03 136.59-3.89 138.04-4.75 138.84-6.05 139.64-7.35 139.64-8.65L139.64-8.65 140.79-8.65Q140.79-6.15 139.78-4.04 138.77-1.93 136.84-0.64 134.92 0.65 132.19 0.65ZM174.99 0L170.26 0 170.26-14.1Q170.26-17.23 168.78-18.84 167.29-20.45 164.76-20.45L164.76-20.45Q162.76-20.45 161.28-19.36 159.79-18.28 158.98-16.19 158.16-14.1 158.16-11.1L158.16-11.1 156.46-11.1Q156.46-15.53 157.6-18.55 158.74-21.58 160.86-23.14 162.99-24.7 165.96-24.7L165.96-24.7Q168.86-24.7 170.88-23.4 172.89-22.1 173.94-19.71 174.99-17.32 174.99-14.1L174.99-14.1 174.99 0ZM158.16 0L153.41 0 153.41-24.05 157.54-24.05 158.16-18.85 158.16 0ZM195.41 0.65L195.41 0.65Q191.56 0.65 188.44-1.36 185.31-3.38 183.46-7.04 181.61-10.7 181.61-15.65L181.61-15.65Q181.61-19.68 182.77-22.8 183.94-25.93 186-28.08 188.06-30.23 190.79-31.33 193.51-32.43 196.61-32.43L196.61-32.43Q200.66-32.43 203.56-30.73 206.46-29.03 208.34-25.33L208.34-25.33 203.64-23.98Q202.14-26.05 200.34-27.09 198.54-28.13 196.39-28.13L196.39-28.13Q193.76-28.13 191.55-26.61 189.34-25.1 188.01-22.31 186.69-19.53 186.69-15.65L186.69-15.65Q186.69-12.13 187.8-9.44 188.91-6.75 190.95-5.24 192.99-3.73 195.76-3.73L195.76-3.73Q197.96-3.73 199.71-4.73 201.46-5.73 202.47-7.69 203.49-9.65 203.49-12.55L203.49-12.55 204.74-12.55Q204.74-8.53 203.77-5.56 202.81-2.6 200.76-0.98 198.71 0.65 195.41 0.65ZM208.09 0L204.24 0 203.49-7.3 203.49-12.7 195.84-12.9 195.84-16.03 208.09-16.03 208.09 0ZM225.96 0.65L225.96 0.65Q222.68 0.65 220.1-0.78 217.51-2.2 216.01-5.03 214.51-7.85 214.51-12L214.51-12Q214.51-16.23 216.01-19.04 217.51-21.85 220.1-23.28 222.68-24.7 225.96-24.7L225.96-24.7Q229.18-24.7 231.76-23.28 234.33-21.85 235.82-19.04 237.31-16.23 237.31-12L237.31-12Q237.31-7.85 235.82-5.03 234.33-2.2 231.76-0.78 229.18 0.65 225.96 0.65ZM225.81-3.5L225.81-3.5Q227.88-3.5 229.4-4.5 230.91-5.5 231.72-7.41 232.53-9.33 232.53-12L232.53-12Q232.53-16.1 230.87-18.35 229.21-20.6 226.08-20.6L226.08-20.6Q223.98-20.6 222.47-19.59 220.96-18.57 220.15-16.66 219.33-14.75 219.33-12L219.33-12Q219.33-7.98 221.01-5.74 222.68-3.5 225.81-3.5Z" opacity="1" transform="matrix(1,0,0,1,0,0)" fill="#50a060" class="undefined-text-0" data-fill-palette-color="primary" id="text-0"></path></svg></g></svg></g></svg></g></svg></g><g><svg viewBox="0 0 81.89135679931168 81.89135679931168" height="81.89135679931168" width="81.89135679931168"><g><svg xmlns="http://www.w3.org/2000/svg" xmlns:xlink="http://www.w3.org/1999/xlink" version="1.1" x="0" y="0" viewBox="0.5 0.5 47 47" enable-background="new 0 0 48 48" xml:space="preserve" height="81.89135679931168" width="81.89135679931168" class="icon-icon-0" data-fill-palette-color="accent" id="icon-0"><g fill="#50a060" data-fill-palette-color="accent"><path fill="#50a060" d="M16.8 47.5H2.3c-1 0-1.8-0.8-1.8-1.8V2.3c0-1 0.8-1.8 1.8-1.8h14.5c1 0 1.8 0.8 1.8 1.8v43.4C18.6 46.7 17.8 47.5 16.8 47.5z" data-fill-palette-color="accent"></path><path fill="#50a060" d="M45.7 16.9h-17c-1 0-1.8-0.8-1.8-1.8V2.3c0-1 0.8-1.8 1.8-1.8h17c1 0 1.8 0.8 1.8 1.8v12.9C47.5 16.1 46.7 16.9 45.7 16.9z" data-fill-palette-color="accent"></path><path fill="#50a060" d="M45.7 46.4h-17c-1 0-1.8-0.8-1.8-1.8V27.4c0-1 0.8-1.8 1.8-1.8h17c1 0 1.8 0.8 1.8 1.8v17.1C47.5 45.6 46.7 46.4 45.7 46.4z" data-fill-palette-color="accent"></path></g></svg></g></svg></g></svg></g><defs></defs></svg><rect width="395.52" height="63.41803451416806" fill="none" stroke="none" visibility="hidden"></rect></g></svg></g></svg>