<?xml version="1.0" standalone="no"?>
<!DOCTYPE svg PUBLIC "-//W3C//DTD SVG 20010904//EN"
 "http://www.w3.org/TR/2001/REC-SVG-20010904/DTD/svg10.dtd">
<svg version="1.0" xmlns="http://www.w3.org/2000/svg"
 width="2560.000000pt" height="1440.000000pt" viewBox="0 0 2560.000000 1440.000000"
 preserveAspectRatio="xMidYMid meet">

<g transform="translate(0.000000,1440.000000) scale(0.100000,-0.100000)"
fill="#000000" stroke="none">
<path d="M13525 13505 c-60 -59 -9 -115 105 -115 59 0 61 -1 67 -30 4 -21 11
-30 24 -30 24 0 24 -19 2 -36 -16 -12 -16 -13 -1 -14 20 0 58 75 65 130 7 48
-8 70 -49 70 -16 0 -55 11 -88 25 -74 31 -95 31 -125 0z"/>
<path d="M12245 13451 c-50 -21 -90 -103 -107 -218 l-11 -79 36 -57 c21 -32
41 -56 46 -53 14 9 30 125 26 194 l-3 62 41 0 c23 1 60 7 82 15 30 11 41 11
48 2 13 -19 -1 -94 -26 -145 -22 -43 -27 -47 -59 -47 -43 0 -43 -1 -51 -42 -6
-31 -3 -35 71 -88 l77 -56 7 68 c4 37 8 133 10 213 3 127 1 149 -15 174 -32
48 -120 78 -172 57z"/>
<path d="M8830 13347 c-179 -169 -354 -429 -454 -677 -33 -82 -80 -249 -102
-370 -23 -118 -26 -486 -6 -625 30 -209 108 -490 191 -690 23 -53 41 -98 41
-99 0 -2 -71 -1 -158 2 -170 5 -291 -7 -412 -39 -77 -21 -195 -63 -218 -78 -9
-5 -17 -53 -24 -147 -19 -235 15 -561 81 -784 39 -133 145 -390 160 -390 4 0
17 20 29 46 12 25 26 42 32 39 10 -6 4 -27 -22 -70 -25 -42 -23 -56 22 -131
81 -131 137 -207 244 -329 267 -305 561 -521 1066 -782 41 -21 74 -43 73 -48
0 -6 -4 -40 -8 -76 l-7 -67 48 -4 c27 -3 52 -3 56 -1 4 2 15 31 24 63 13 47
21 60 36 60 41 0 234 -33 245 -42 6 -5 13 -24 15 -41 3 -31 4 -32 61 -35 l57
-3 0 32 c0 29 2 31 28 26 15 -3 224 -38 465 -78 l438 -73 -6 -40 c-15 -100 1
-88 -163 -119 -81 -16 -228 -43 -327 -62 -173 -33 -477 -90 -635 -120 -41 -7
-138 -26 -215 -40 -303 -57 -507 -96 -672 -126 l-171 -32 -29 34 c-133 162
-335 290 -539 341 -74 19 -115 23 -244 22 -136 0 -167 -4 -253 -27 -146 -40
-289 -117 -398 -213 -34 -30 -40 -31 -80 -23 -76 14 -354 66 -614 114 -137 25
-284 52 -325 60 -162 33 -882 165 -895 165 -13 0 -15 -302 -13 -2372 l3 -2373
70 -21 c39 -12 252 -72 475 -134 223 -61 441 -122 485 -134 215 -62 238 -67
247 -58 7 7 6 52 -3 131 -7 66 -11 123 -8 125 9 9 284 24 293 16 5 -5 5 -80 0
-182 -6 -95 -9 -174 -9 -175 1 -2 71 -22 685 -192 179 -50 348 -97 375 -105
28 -8 102 -29 165 -46 63 -17 134 -38 157 -47 33 -11 51 -12 75 -4 18 6 204
53 413 106 209 53 538 136 730 185 193 49 359 90 370 92 20 3 20 -4 25 -492
l5 -495 183 -51 c101 -29 186 -55 189 -58 3 -3 5 -39 4 -80 -2 -49 2 -77 10
-82 16 -10 36 19 44 66 4 21 12 46 20 56 13 18 16 18 92 -2 295 -79 780 -218
788 -225 5 -5 8 -41 6 -79 l-3 -70 51 0 c42 0 53 4 64 23 8 12 22 36 33 53
l19 32 120 -34 c66 -18 163 -45 215 -60 52 -14 124 -35 160 -45 107 -31 313
-86 345 -93 17 -3 68 -17 115 -30 47 -13 153 -42 235 -65 83 -23 179 -51 215
-62 l65 -20 75 20 c41 11 309 79 595 151 855 216 1029 260 1032 264 4 3 -129
424 -297 941 -28 88 -69 214 -90 280 -21 66 -104 325 -185 575 -81 250 -185
574 -232 720 -46 146 -113 353 -148 460 -35 107 -102 317 -150 465 -47 149
-99 311 -116 360 -37 116 -37 117 8 113 l36 -3 44 -138 44 -137 310 0 310 0
-6 23 c-4 12 -22 70 -41 128 -19 58 -34 111 -34 117 0 7 15 12 35 12 l34 0 86
-268 c48 -147 113 -348 145 -447 82 -253 205 -634 455 -1415 119 -371 229
-713 244 -760 16 -47 42 -128 59 -180 174 -539 215 -660 224 -660 15 0 490
120 500 126 4 3 8 196 8 430 0 233 4 424 8 424 4 0 66 -17 137 -39 72 -21 202
-60 290 -86 l161 -47 269 72 c149 39 369 98 490 130 121 32 332 88 469 125
136 37 252 63 256 58 4 -4 17 -62 29 -128 12 -66 33 -163 45 -215 l23 -95 62
-3 61 -3 0 38 c0 21 -7 133 -15 248 -7 116 -11 213 -7 217 13 12 135 39 142
31 4 -4 31 -60 60 -123 28 -63 86 -181 128 -262 l76 -148 58 0 c37 0 58 4 58
12 0 6 -41 139 -91 295 -50 157 -89 286 -87 288 2 3 202 57 443 121 242 63
447 120 457 125 16 9 18 36 20 325 l3 316 130 57 c159 70 207 95 344 176 211
125 442 320 581 490 180 220 315 509 369 787 24 127 44 314 39 383 -3 43 -7
52 -36 72 -41 27 -170 78 -272 106 -65 18 -104 21 -295 21 -196 1 -231 -2
-325 -23 -186 -41 -325 -87 -502 -165 l-38 -16 0 1273 c0 701 -2 1276 -5 1279
-4 4 -262 -45 -690 -132 -82 -17 -391 -78 -685 -136 -294 -58 -668 -132 -830
-164 -162 -32 -389 -77 -505 -100 -149 -30 -223 -40 -255 -36 -49 7 -628 119
-855 166 -77 16 -203 41 -280 55 -77 15 -284 55 -460 90 -176 35 -459 91 -630
124 -635 124 -685 135 -678 142 5 4 78 19 163 33 163 27 418 72 760 131 112
20 206 38 208 40 4 4 -41 152 -143 465 -35 107 -118 366 -185 575 -67 209
-148 461 -180 560 -32 99 -91 281 -131 405 -39 124 -75 228 -78 233 -4 4 -64
-4 -133 -18 -69 -14 -186 -37 -260 -50 -126 -22 -290 -53 -668 -126 -183 -35
-150 -36 -430 17 -260 49 -459 86 -560 104 -151 28 -514 95 -735 136 -104 19
-255 48 -335 65 -80 16 -208 41 -285 54 -77 14 -239 44 -360 66 -121 22 -262
48 -312 57 -51 9 -93 19 -93 22 0 3 64 16 143 29 329 53 863 142 874 146 13 4
-20 123 -79 290 -173 484 -401 908 -675 1255 -135 170 -351 369 -536 493 -128
85 -428 227 -480 227 -7 0 -28 -15 -47 -33z m1044 -2899 c3 -13 6 -42 6 -65 0
-41 11 -55 25 -33 3 6 16 10 28 10 42 0 142 30 200 60 31 16 57 28 57 26 0 -3
-5 -17 -10 -32 -9 -22 -7 -29 10 -41 25 -18 26 -45 1 -67 -16 -14 -18 -23 -10
-49 5 -18 9 -32 9 -33 0 0 -24 7 -52 17 -108 37 -141 14 -72 -51 20 -19 43
-50 51 -70 8 -19 21 -42 28 -50 26 -32 73 -279 69 -364 -8 -149 -90 -164 -234
-43 l-55 46 -6 -27 c-4 -15 -7 -79 -8 -142 l-1 -115 -106 3 c-207 7 -241 -14
-158 -99 26 -26 43 -52 40 -58 -9 -14 -71 -14 -97 -1 -10 6 -26 27 -34 47 -9
20 -36 68 -61 106 -42 63 -90 159 -125 247 -7 19 -14 60 -14 91 0 70 49 171
141 292 83 111 104 128 157 134 l45 5 6 87 c3 47 4 97 3 111 -1 17 3 25 13 25
12 0 16 -18 18 -92 l3 -91 57 -28 c31 -15 64 -34 72 -43 8 -8 49 -82 90 -165
41 -83 81 -152 89 -155 12 -3 13 15 8 113 l-6 117 -48 44 c-26 24 -42 44 -35
45 8 0 10 5 5 13 -4 6 -10 30 -13 52 -4 32 -9 39 -23 37 -26 -4 -47 16 -47 44
0 19 -5 24 -24 24 -14 0 -28 -4 -31 -10 -3 -5 -17 -10 -31 -10 -23 0 -24 2
-24 80 l0 80 44 0 c37 0 45 -4 50 -22z m2896 -1113 c0 -33 2 -35 25 -29 19 5
25 2 25 -10 0 -9 -6 -19 -12 -21 -14 -6 -20 -84 -12 -152 5 -40 7 -43 54 -58
61 -20 134 -84 164 -144 49 -97 82 -329 73 -512 -7 -131 -37 -278 -74 -356
-28 -60 -24 -108 10 -155 19 -25 27 -28 79 -28 l58 0 0 -68 0 -69 -69 -16
c-85 -21 -117 -21 -125 -2 -7 20 -46 19 -46 -1 0 -14 -8 -16 -52 -10 -29 4
-75 12 -101 18 l-48 10 3 66 3 67 55 3 c46 3 60 8 84 33 35 36 38 48 40 207
l1 123 -205 2 -205 2 -5 155 c-5 153 -5 155 -22 124 -20 -37 -80 -91 -117
-106 -77 -31 -267 -58 -408 -58 -56 0 -104 -4 -107 -9 -4 -5 -24 -12 -46 -16
-34 -6 -46 -2 -86 25 -43 29 -129 53 -304 86 -21 4 -30 -3 -53 -41 -16 -25
-33 -45 -38 -45 -5 0 -10 26 -11 58 l-1 57 -6 -65 c-6 -61 -8 -65 -32 -68 -23
-3 -27 -9 -33 -49 -3 -25 -6 -68 -6 -94 l0 -49 -124 0 -123 0 -12 91 c-7 51
-21 137 -33 193 -12 58 -23 156 -25 231 -4 123 -3 132 19 175 32 59 64 71 107
41 l31 -22 0 105 c0 59 -4 108 -10 111 -18 11 -10 33 14 39 14 3 46 22 72 42
44 34 48 35 60 19 7 -9 16 -45 19 -80 9 -77 -7 -118 -47 -123 -29 -3 -40 -29
-32 -72 5 -24 28 -50 112 -128 22 -21 32 -40 32 -59 0 -74 12 -122 32 -129 24
-7 19 -13 60 69 32 63 34 71 25 112 -8 36 -7 48 7 69 21 33 46 33 76 1 17 -18
20 -28 12 -37 -10 -13 -76 -248 -70 -253 2 -1 35 -15 73 -30 39 -15 103 -40
143 -56 69 -27 75 -28 103 -14 21 12 34 13 48 5 11 -5 32 -10 48 -10 34 0 303
98 393 142 62 31 67 37 107 113 24 44 59 118 78 165 60 143 107 193 211 223
39 11 49 19 56 42 9 35 3 45 -27 45 -42 0 -54 51 -39 164 l7 46 73 0 74 0 0
-35z m-1511 -1307 c-4 -40 -9 -86 -10 -103 -1 -16 -7 13 -13 65 -7 52 -10 98
-8 103 2 4 11 7 20 7 16 0 17 -8 11 -72z m1538 -327 c26 -5 65 -12 85 -16 34
-5 37 -9 40 -43 2 -26 8 -38 21 -40 14 -3 17 4 17 36 l0 40 72 12 c40 7 85 13
101 14 l29 1 0 -118 c0 -65 -4 -123 -9 -128 -6 -6 -93 -9 -219 -7 l-209 3 -3
128 c-3 142 -8 134 75 118z m-4836 -31 c92 -13 254 -69 323 -110 268 -162 430
-448 429 -760 -2 -436 -307 -790 -747 -866 -258 -45 -539 48 -742 246 -208
202 -305 512 -248 788 37 181 111 318 239 448 201 202 470 294 746 254z m6379
-177 c19 -3 37 -10 41 -14 10 -17 -9 -139 -26 -165 -15 -23 -21 -26 -56 -20
-35 6 -39 4 -45 -20 -4 -15 2 -56 16 -101 32 -107 49 -182 70 -310 12 -68 28
-127 41 -151 22 -38 23 -39 123 -56 273 -46 336 -59 336 -65 -2 -25 -39 -136
-46 -136 -22 1 -116 18 -194 36 -47 10 -105 21 -130 23 -25 2 -65 9 -90 15
-28 8 -119 11 -245 9 l-200 -3 1 -72 c0 -60 4 -78 27 -112 45 -68 111 -96 326
-137 109 -22 129 -14 -194 -74 -115 -21 -307 -57 -425 -80 -433 -82 -528 -100
-688 -130 -90 -16 -178 -30 -195 -30 -18 0 -93 12 -167 25 -74 14 -157 30
-185 35 -27 5 -162 29 -300 55 -137 26 -297 55 -355 66 -101 18 -260 48 -665
124 -104 19 -300 56 -435 80 -135 25 -267 49 -295 55 -522 98 -557 106 -525
114 46 11 934 155 937 152 2 -2 6 -27 10 -55 4 -40 10 -51 22 -49 8 2 18 14
21 26 l5 24 24 -26 c22 -24 32 -26 103 -26 70 0 79 2 76 17 -4 21 -40 40 -90
48 -38 6 -128 61 -136 83 -5 17 48 15 68 -3 15 -13 34 -12 179 12 128 21 164
24 170 14 10 -16 96 -11 97 7 1 6 2 16 3 21 0 5 25 11 54 15 28 4 267 43 530
87 263 43 484 79 492 79 12 0 15 -19 15 -100 l0 -100 49 0 50 0 11 58 c6 31
16 82 23 112 l13 55 94 17 c108 19 130 21 147 10 7 -4 23 -61 36 -127 l24
-120 58 -3 57 -3 -7 110 c-8 130 -22 120 133 96 303 -48 708 -117 716 -122 6
-4 6 1 0 13 -5 10 -9 49 -9 85 1 57 5 73 35 124 19 32 89 115 155 185 131 138
196 238 169 261 -21 17 -17 31 9 27 15 -2 27 5 40 26 14 22 23 27 40 22 12 -4
38 -10 57 -13z m949 -969 c218 -36 403 -68 411 -71 16 -6 -72 -26 -300 -67
-133 -24 -402 -75 -532 -100 -37 -7 -69 -11 -72 -9 -2 3 2 20 10 39 9 22 12
48 8 70 -3 19 -2 34 3 34 6 0 18 30 28 68 19 72 32 102 42 102 4 0 185 -30
402 -66z m-7829 -644 c22 -11 46 -20 55 -20 9 0 18 -6 20 -13 3 -7 -22 -82
-55 -167 -34 -85 -75 -190 -91 -232 -17 -43 -34 -78 -37 -78 -12 0 -117 41
-125 49 -5 5 25 96 67 202 106 275 108 279 118 279 5 0 26 -9 48 -20z m6915
-480 c22 -8 24 -13 15 -30 -8 -16 -17 -19 -38 -14 -36 9 -44 17 -36 37 7 19
22 21 59 7z m445 -60 c0 -22 -16 -25 -54 -10 -39 14 -31 30 14 30 33 0 40 -3
40 -20z m-7562 -336 c29 -20 28 -44 -7 -101 -16 -27 -55 -115 -86 -198 -31
-82 -68 -178 -81 -212 -13 -34 -24 -64 -24 -68 0 -4 -28 -39 -63 -79 -106
-120 -138 -163 -132 -179 4 -8 -5 -42 -19 -76 -20 -46 -26 -78 -26 -133 0 -40
-3 -90 -6 -110 l-7 -38 -140 0 -140 0 7 46 c3 26 6 55 6 65 0 11 13 22 36 29
20 7 53 29 74 50 46 46 60 100 60 239 l0 98 24 -4 c20 -4 43 13 128 93 56 54
117 121 134 149 134 218 183 310 190 353 7 45 29 92 43 92 4 0 17 -7 29 -16z
m10352 -13 c0 -40 -53 -131 -76 -131 -17 0 -17 4 -4 52 11 38 54 98 71 98 5 0
9 -8 9 -19z m163 -110 c14 -2 7 -29 -24 -98 -28 -60 -32 -82 -36 -184 -9 -182
-4 -194 85 -214 l32 -7 0 64 c0 71 24 266 34 275 4 4 19 2 34 -3 l27 -9 6
-135 c9 -209 15 -220 103 -220 46 0 46 0 46 35 0 26 -6 39 -26 52 -23 15 -25
21 -20 56 6 37 50 134 78 169 9 12 20 16 36 11 20 -5 23 -10 18 -32 -15 -61
-18 -111 -8 -111 6 0 14 5 17 10 3 6 15 10 26 10 20 0 27 -34 9 -45 -12 -7
-50 -79 -50 -94 0 -5 10 -11 22 -13 18 -2 24 -12 31 -47 6 -29 18 -52 37 -68
16 -13 38 -43 49 -66 20 -41 21 -60 21 -325 l0 -282 -199 0 -199 0 4 38 c6 48
34 419 34 442 0 13 -21 25 -77 45 -108 39 -202 90 -240 130 -31 33 -33 38 -33
112 0 43 10 132 22 198 12 66 22 154 22 195 1 41 5 81 10 88 11 18 46 30 76
27 14 -2 28 -4 33 -4z m155 -58 l27 -28 -28 -3 c-30 -4 -67 21 -67 45 0 23 40
14 68 -14z m-11119 -320 c10 -83 2 -105 -39 -117 -19 -6 -40 -16 -45 -23 -9
-12 -7 62 4 159 2 16 56 57 64 49 5 -5 12 -35 16 -68z m4602 -803 c24 -11 56
-20 72 -20 25 0 27 -3 27 -40 0 -76 -45 -139 -86 -123 -14 5 -24 -9 -40 -55
-14 -40 5 -173 28 -200 8 -9 35 -46 60 -82 25 -36 81 -117 126 -181 l81 -115
151 19 c83 10 153 17 156 15 6 -7 67 -518 62 -524 -6 -6 -298 -44 -608 -79
-124 -14 -310 -36 -415 -49 -104 -14 -300 -39 -434 -56 -134 -17 -249 -29
-255 -27 -7 3 -20 96 -35 253 -12 137 -24 255 -24 263 -1 9 10 16 33 18 134
15 492 62 495 65 2 2 -1 23 -5 48 -22 110 -2 189 73 300 23 34 56 86 72 116
75 131 161 211 261 240 45 13 57 22 83 63 33 51 37 71 20 88 -13 13 -4 33 15
33 7 0 18 11 24 25 14 30 10 30 63 5z m-1063 -2022 c3 -29 -1 -38 -17 -43 -12
-3 -25 -3 -31 0 -17 10 -12 63 8 74 26 16 37 8 40 -31z"/>
<path d="M12885 7892 c-16 -16 2 -23 58 -20 35 2 61 7 60 13 -3 10 -109 16
-118 7z"/>
<path d="M11241 6621 c-6 -10 -8 -42 -4 -70 4 -40 10 -51 22 -49 8 2 18 14 21
26 l5 24 24 -26 c22 -24 32 -26 103 -26 60 0 78 3 78 14 0 22 -26 38 -76 47
-26 5 -68 24 -95 44 -56 40 -65 42 -78 16z"/>
<path d="M12402 6618 c-6 -6 -42 -21 -79 -34 -38 -13 -68 -29 -68 -36 0 -17
111 -23 162 -9 25 7 41 7 49 0 7 -6 23 -9 36 -7 20 3 23 9 23 48 l0 45 -56 2
c-32 2 -60 -2 -67 -9z"/>
<path d="M12840 6604 c-25 -13 -62 -27 -82 -30 -28 -5 -38 -11 -38 -25 0 -17
8 -19 63 -19 34 0 80 5 102 10 25 6 44 5 52 -1 6 -6 22 -9 35 -7 23 3 25 9 20
78 -3 30 -92 27 -152 -6z"/>
<path d="M11397 2943 c-2 -4 -5 -28 -6 -52 l-2 -43 58 7 c55 7 71 11 62 18
-65 49 -108 76 -112 70z"/>
<path d="M12341 12699 c-10 -45 -41 -239 -41 -254 0 -3 46 -4 102 -3 l102 3 8
44 c6 34 3 52 -14 84 -18 36 -19 45 -8 77 18 51 30 63 46 49 11 -9 14 -5 14
20 l0 31 -99 0 -99 0 -11 -51z m117 -60 c-2 -6 -8 -10 -13 -10 -5 0 -11 4 -13
10 -2 6 4 11 13 11 9 0 15 -5 13 -11z"/>
<path d="M13510 12293 c0 -32 9 -254 20 -493 11 -239 20 -498 21 -575 1 -77 4
-171 8 -210 l6 -70 45 0 44 0 28 125 c31 139 35 168 43 355 7 167 14 224 25
205 8 -16 114 -322 171 -497 l34 -103 54 0 54 0 -6 63 c-21 227 -53 402 -98
536 -40 116 -53 259 -47 512 l5 209 -204 0 -203 0 0 -57z"/>
<path d="M12200 12265 l0 -75 -129 0 c-86 0 -132 -4 -137 -11 -13 -22 -7 -225
11 -343 17 -109 17 -124 2 -214 -28 -169 -28 -463 -1 -609 6 -32 8 -33 55 -33
42 0 49 3 53 23 14 64 66 360 71 410 4 31 11 59 15 62 4 2 10 -46 13 -108 3
-62 17 -164 31 -227 38 -174 30 -160 91 -160 l52 0 7 73 c3 39 11 196 16 347
6 151 17 396 25 545 8 148 13 271 11 272 -2 2 -19 -3 -38 -11 -20 -9 -38 -12
-42 -9 -3 4 -6 37 -6 75 l0 68 -50 0 -50 0 0 -75z"/>
<path d="M17930 10974 c-44 -20 -58 -23 -76 -14 -32 18 -75 8 -97 -22 -17 -23
-18 -31 -8 -56 27 -65 101 -89 177 -57 34 14 38 14 64 -8 33 -25 37 -42 14
-55 -16 -9 -52 -161 -53 -224 -1 -23 -6 -27 -33 -30 -30 -3 -39 -12 -95 -107
-35 -58 -63 -114 -63 -125 0 -12 14 -74 30 -140 17 -65 30 -131 30 -146 0 -43
15 -44 36 -2 10 20 20 39 21 41 4 7 103 -61 103 -71 0 -24 -37 -67 -101 -117
-56 -45 -70 -61 -75 -90 -22 -130 -84 -320 -129 -397 l-26 -44 -338 0 -338 0
-31 49 c-56 91 -169 153 -281 155 -96 1 -99 -4 -40 -76 62 -77 121 -195 150
-303 18 -67 22 -109 23 -265 1 -102 -3 -216 -7 -253 l-9 -68 33 3 c27 2 35 8
42 33 7 26 19 35 70 54 34 13 117 51 184 86 l121 62 6 -31 c5 -33 25 -174 52
-371 17 -131 18 -135 40 -135 18 0 18 -1 -7 150 -11 69 -29 187 -41 264 l-22
138 67 60 c113 101 147 190 101 267 -34 58 -71 76 -154 76 -61 0 -75 3 -78 16
-4 22 28 25 249 21 l176 -3 -49 -332 c-26 -183 -54 -366 -62 -407 -34 -174
-48 -292 -37 -303 7 -7 14 -7 20 -1 8 8 31 150 46 284 8 67 104 730 111 763
l6 28 101 -3 102 -3 3 -116 3 -117 42 -6 c52 -7 195 -7 263 0 l51 6 -13 49
c-26 101 -56 307 -57 394 0 49 7 140 17 200 l19 110 -22 57 c-12 32 -41 86
-64 120 -40 60 -42 67 -42 137 l0 75 31 8 c37 9 60 53 50 95 -18 71 -17 79 13
137 17 32 31 64 31 71 0 7 -14 38 -31 71 l-31 58 31 57 c17 31 31 62 31 69 0
7 -25 37 -55 67 l-56 53 7 49 c5 41 3 52 -15 70 -28 28 -64 26 -131 -5z m-772
-1738 c26 -16 12 -51 -30 -75 -23 -13 -64 -44 -90 -69 l-48 -45 0 96 c0 82 2
96 17 99 31 6 139 2 151 -6z"/>
<path d="M13942 10974 c-10 -6 -46 -21 -82 -32 -41 -12 -66 -26 -68 -36 -3
-14 12 -16 132 -14 l136 2 0 35 c0 20 -4 41 -8 46 -10 14 -90 13 -110 -1z"/>
<path d="M12234 10957 c-3 -8 -4 -41 -2 -73 3 -51 6 -59 23 -59 14 0 19 6 17
18 -4 22 7 21 38 -3 33 -25 180 -30 180 -5 0 8 -11 22 -24 30 -18 12 -29 13
-51 5 -20 -8 -38 -7 -62 1 -40 13 -93 55 -93 74 0 20 -19 29 -26 12z"/>
<path d="M11946 10943 c-3 -10 -2 -40 2 -68 5 -36 12 -51 25 -53 13 -3 17 3
17 23 l0 27 31 -27 c29 -24 38 -26 108 -23 59 2 76 6 76 18 0 23 -44 40 -73
29 -44 -17 -152 38 -152 77 0 20 -28 17 -34 -3z"/>
<path d="M15420 10926 c-30 -8 -111 -23 -180 -36 -69 -12 -204 -37 -300 -56
-96 -18 -224 -42 -284 -53 -60 -11 -111 -23 -114 -26 -3 -3 20 -83 50 -178 49
-150 104 -320 280 -867 22 -69 105 -327 185 -575 79 -247 158 -492 174 -543
25 -75 33 -92 47 -88 9 2 63 13 120 22 88 15 103 21 108 38 2 12 3 550 2 1196
-3 1035 -5 1175 -18 1177 -8 1 -40 -4 -70 -11z"/>
<path d="M13530 10885 c-14 -8 -50 -22 -80 -31 -54 -16 -77 -33 -60 -44 4 -3
50 -2 102 1 51 3 99 2 106 -1 8 -4 25 -5 38 -2 19 3 24 11 24 32 0 51 -8 60
-59 60 -25 -1 -57 -7 -71 -15z"/>
<path d="M15984 10879 c-4 -8 -25 -9 -60 -5 -46 5 -57 3 -74 -14 -11 -11 -20
-26 -20 -33 0 -7 -13 -26 -30 -42 -34 -33 -37 -50 -12 -78 9 -10 26 -37 37
-60 11 -24 34 -49 53 -59 17 -10 32 -17 33 -15 9 27 6 49 -6 53 -18 7 -20 30
-2 41 7 4 18 20 24 34 11 25 13 26 85 21 58 -3 82 -1 109 13 33 17 49 32 49
48 0 16 -42 47 -65 47 -15 0 -29 8 -36 23 -7 12 -17 25 -23 29 -17 12 -54 9
-62 -3z"/>
<path d="M16843 10799 c-7 -7 -13 -25 -13 -41 0 -35 28 -52 65 -38 16 6 195
10 461 10 l434 0 0 29 0 29 -442 5 c-244 3 -454 8 -468 12 -15 4 -30 1 -37 -6z"/>
<path d="M14150 10687 c-146 -28 -267 -52 -270 -54 -2 -2 13 -55 34 -118 l37
-115 310 0 c170 0 309 3 309 6 0 8 -88 281 -100 312 -6 14 -17 22 -32 21 -13
-1 -142 -24 -288 -52z"/>
<path d="M6926 10453 c-3 -3 1 -18 10 -34 14 -28 16 -29 98 -29 79 0 83 1 95
26 6 14 9 30 5 35 -6 10 -199 11 -208 2z"/>
<path d="M13977 10334 c-3 -3 -2 -16 3 -27 5 -12 30 -88 56 -169 l47 -148 309
0 c169 0 308 3 308 8 0 4 -24 81 -53 172 l-53 165 -305 3 c-168 1 -308 0 -312
-4z"/>
<path d="M17711 10226 l-34 -35 18 -63 c10 -35 22 -67 26 -71 3 -5 21 -1 38 8
35 18 36 29 2 141 l-16 55 -34 -35z"/>
<path d="M17104 10013 c4 -120 9 -259 12 -310 l6 -92 31 -5 c18 -3 46 -4 62
-3 l30 2 3 283 2 282 -26 0 c-35 0 -94 29 -94 46 0 8 -7 14 -16 14 -14 0 -15
-22 -10 -217z"/>
<path d="M6946 10085 c-27 -21 -36 -160 -12 -190 16 -19 16 -18 10 18 -6 36 6
51 22 25 5 -7 15 -2 30 18 l23 28 45 -21 c70 -35 107 -38 139 -13 32 26 36 67
8 101 -16 21 -32 25 -103 31 -45 3 -96 9 -113 12 -19 4 -37 1 -49 -9z"/>
<path d="M14146 9793 c24 -76 49 -155 56 -175 l11 -38 309 0 c243 0 308 3 308
13 0 7 -24 84 -53 172 l-54 160 -310 3 -311 2 44 -137z"/>
<path d="M15677 9641 c-2 -3 0 -73 4 -156 13 -284 -16 -631 -84 -1002 -7 -40
-13 -73 -13 -73 1 -1 35 -2 76 -2 l75 -2 31 90 c39 110 94 293 133 443 17 62
33 116 36 119 7 7 5 -373 -3 -525 l-7 -122 59 -3 c32 -2 62 -1 66 2 8 5 45
166 54 235 3 22 17 117 31 210 45 296 45 653 0 761 l-13 31 -221 1 c-122 0
-223 -3 -224 -7z"/>
<path d="M6580 9545 c-157 -73 -175 -84 -172 -105 3 -31 107 -245 171 -355
105 -179 272 -373 369 -431 18 -10 32 -21 32 -24 0 -4 -12 -44 -26 -91 -14
-46 -52 -176 -85 -289 -33 -113 -66 -224 -74 -247 -7 -23 -11 -44 -7 -47 16
-17 33 -1 44 40 12 45 15 47 216 181 112 74 209 136 215 139 7 2 104 -58 217
-134 203 -136 205 -138 218 -185 12 -42 28 -57 44 -42 6 6 -2 32 -103 365 -32
107 -59 202 -59 211 0 11 18 19 66 28 36 6 95 23 131 36 36 14 69 23 73 20 4
-3 11 -25 15 -51 9 -63 66 -255 99 -334 15 -36 33 -80 38 -97 11 -31 14 -33
60 -33 55 0 54 -4 38 112 -17 128 -39 320 -45 408 l-6 85 46 -82 c70 -121 196
-284 319 -410 l109 -113 48 0 c27 0 49 3 49 6 0 7 -17 42 -210 439 -62 127
-127 262 -145 300 -50 107 -114 155 -209 155 -36 0 -46 4 -51 21 -13 39 -63
59 -148 59 -60 0 -79 -3 -83 -15 -5 -13 -40 -15 -226 -15 l-219 0 -195 -124
-194 -125 -24 37 c-12 20 -35 58 -50 85 -16 26 -35 47 -44 47 -10 0 -31 9 -49
20 -50 30 -56 66 -51 316 4 177 8 228 23 267 9 26 16 50 14 51 -2 2 -83 -33
-179 -79z m530 -971 c80 -28 261 -48 358 -38 39 3 72 2 72 -2 -1 -5 -62 -49
-136 -97 l-136 -88 -136 89 c-76 49 -138 96 -140 104 -2 8 2 27 8 42 8 21 14
26 28 20 9 -4 46 -18 82 -30z m13 -157 c65 -43 117 -80 115 -82 -11 -12 -371
-245 -373 -243 -4 4 16 80 59 222 20 65 36 124 36 132 0 29 20 65 32 58 7 -4
66 -43 131 -87z m441 56 c3 -16 28 -106 54 -200 27 -95 45 -173 41 -173 -4 0
-57 33 -118 73 -61 39 -142 92 -181 116 -38 24 -70 45 -70 48 0 7 245 163 256
163 6 0 14 -12 18 -27z"/>
<path d="M14240 9508 c0 -7 24 -85 53 -173 l53 -160 307 -3 c242 -2 307 0 307
10 0 7 -23 86 -52 176 l-52 162 -308 0 c-240 0 -308 -3 -308 -12z"/>
<path d="M16515 9478 c-45 -24 -96 -85 -115 -135 -35 -95 -21 -187 45 -297 19
-32 35 -62 35 -66 0 -5 -21 -2 -47 6 -144 43 -239 -16 -212 -134 12 -55 25
-77 90 -153 37 -43 69 -67 135 -100 85 -43 89 -44 199 -47 l112 -4 12 89 c43
337 -25 635 -185 812 -40 45 -40 45 -69 29z"/>
<path d="M14376 9102 c-3 -5 20 -88 51 -185 l57 -177 308 0 c240 0 308 3 308
13 0 16 -103 328 -113 345 -6 9 -79 12 -307 12 -164 0 -301 -4 -304 -8z"/>
<path d="M18040 8768 c0 -18 11 -114 25 -213 14 -99 28 -206 31 -238 4 -38 11
-60 20 -64 25 -9 27 4 15 74 -15 87 -70 444 -71 461 0 28 -20 9 -20 -20z"/>
<path d="M14510 8669 c0 -19 81 -263 90 -272 4 -5 77 3 161 18 85 15 213 37
284 49 91 16 131 27 132 37 2 8 -10 50 -25 94 l-27 80 -307 3 c-231 2 -308 -1
-308 -9z"/>
<path d="M16518 8320 l-3 -170 180 -1 c99 -1 194 -2 210 -3 l30 -1 3 173 2
172 -209 0 -210 0 -3 -170z"/>
<path d="M15579 8323 c-6 -6 -9 -33 -7 -60 3 -47 4 -48 37 -51 19 -2 37 2 41
8 6 9 20 10 59 1 29 -6 81 -11 116 -11 57 0 65 2 65 19 0 25 -15 35 -80 56
-30 10 -68 25 -85 33 -36 18 -133 22 -146 5z"/>
<path d="M15919 8323 c-6 -6 -9 -33 -7 -60 3 -44 5 -48 31 -51 16 -2 35 2 42
8 11 9 27 9 65 1 28 -6 80 -11 115 -11 57 0 65 2 65 19 0 25 -16 37 -70 51
-25 7 -63 21 -85 33 -45 23 -141 29 -156 10z"/>
<path d="M18281 8290 c-32 -37 -51 -51 -79 -56 -46 -8 -82 -30 -82 -49 0 -12
14 -15 63 -15 61 0 63 1 99 42 33 38 37 40 38 21 0 -16 6 -23 20 -23 16 0 20
7 20 38 0 95 -24 108 -79 42z"/>
<path d="M17957 8285 c-4 -8 -28 -29 -54 -45 -36 -23 -55 -29 -76 -24 -28 6
-77 -17 -77 -36 0 -6 32 -10 73 -10 61 0 77 3 92 20 10 11 22 20 27 20 4 0 8
-9 8 -20 0 -11 7 -20 15 -20 26 0 35 119 9 127 -6 2 -14 -3 -17 -12z"/>
<path d="M8014 8051 c-2 -2 -4 -25 -4 -50 l0 -46 145 -3 c124 -2 145 0 145 13
0 9 -6 17 -12 19 -89 27 -125 40 -145 53 -22 15 -118 25 -129 14z"/>
<path d="M8538 8031 c-5 -14 -6 -36 -3 -50 l6 -26 145 -3 c132 -2 145 0 142
15 -2 10 -20 21 -48 28 -25 7 -65 22 -90 35 -28 14 -64 24 -94 24 -42 1 -49
-2 -58 -23z"/>
<path d="M9794 7984 c-3 -12 -4 -33 -2 -45 3 -24 4 -24 73 -18 6 0 40 -3 77
-7 58 -6 68 -5 74 10 4 9 4 19 2 22 -14 13 -119 47 -166 53 -49 7 -53 5 -58
-15z"/>
<path d="M9355 7967 c-10 -39 3 -67 30 -67 13 0 26 4 29 9 4 5 22 5 43 0 48
-11 120 -12 127 -1 16 26 -84 72 -171 79 -49 5 -53 3 -58 -20z"/>
<path d="M13425 4833 c28 -93 91 -283 96 -287 7 -7 609 -14 614 -7 2 4 -20 81
-49 172 l-53 164 -311 3 -311 2 14 -47z"/>
<path d="M13543 4463 c3 -5 28 -81 56 -170 l52 -163 309 0 c171 0 310 3 310 8
-1 4 -25 79 -53 167 l-53 160 -313 3 c-172 1 -310 -1 -308 -5z"/>
<path d="M13680 4053 c0 -10 24 -88 52 -175 l53 -158 85 -2 c211 -6 530 -2
530 6 0 5 -23 82 -52 172 l-52 164 -265 1 c-146 0 -285 3 -308 5 -36 3 -43 1
-43 -13z"/>
<path d="M13810 3643 c0 -5 24 -82 53 -173 l53 -165 304 -3 c167 -1 307 1 310
5 4 5 -18 83 -48 176 l-54 167 -309 0 c-170 0 -309 -3 -309 -7z"/>
<path d="M13945 3218 c25 -81 98 -307 105 -325 l10 -23 305 0 c234 0 305 3
305 12 0 7 -25 90 -55 185 l-56 173 -310 0 -310 0 6 -22z"/>
<path d="M14081 2798 c0 -7 26 -89 57 -183 l57 -170 299 -3 c172 -2 303 1 308
6 6 6 -13 79 -48 186 l-57 176 -308 0 c-241 0 -309 -3 -308 -12z"/>
<path d="M14220 2373 c0 -8 102 -335 106 -341 5 -8 619 -3 619 5 0 4 -25 83
-55 176 l-54 167 -308 0 c-169 0 -308 -3 -308 -7z"/>
<path d="M6383 2188 c-5 -7 -15 -33 -22 -57 -10 -33 -10 -46 -1 -55 9 -8 16
-6 27 11 l14 21 33 -36 c33 -35 34 -35 107 -33 41 1 76 4 78 7 13 13 -37 43
-80 49 -56 8 -91 32 -109 75 -13 32 -31 38 -47 18z"/>
<path d="M6654 2165 c-11 -28 6 -125 22 -125 8 0 14 9 14 20 0 11 4 20 8 20 5
0 17 -9 27 -20 15 -17 31 -20 92 -20 55 0 73 3 73 14 0 20 -19 33 -70 46 -25
6 -69 27 -97 46 -60 39 -62 39 -69 19z"/>
<path d="M17722 2164 c-12 -8 -22 -26 -22 -40 l0 -24 149 0 c141 0 150 1 156
20 13 41 -3 60 -50 60 -32 0 -45 -5 -50 -17 -6 -17 -7 -17 -16 0 -6 9 -14 17
-19 17 -6 0 -10 -8 -10 -17 -1 -17 -1 -17 -14 0 -17 22 -93 23 -124 1z"/>
<path d="M18243 2170 c-17 -7 -23 -18 -23 -40 l0 -30 144 0 c157 0 174 6 162
55 -6 23 -11 25 -57 25 -31 0 -48 -4 -44 -10 3 -5 0 -10 -9 -10 -8 0 -17 6
-19 13 -4 9 -8 8 -17 -3 -9 -11 -13 -12 -17 -2 -5 14 -86 15 -120 2z"/>
<path d="M14354 1944 c4 -9 30 -90 58 -180 l52 -164 312 0 312 0 -45 138 c-25
75 -50 155 -57 177 l-13 40 -312 3 c-288 2 -313 1 -307 -14z"/>
<path d="M14766 1532 c-215 -2 -277 -5 -273 -15 2 -6 12 -37 20 -68 9 -30 23
-71 31 -91 l15 -36 277 70 c153 38 281 71 285 74 4 2 3 17 -2 33 -13 37 -9 37
-353 33z"/>
<path d="M11101 1114 c-12 -15 -21 -35 -21 -44 0 -19 45 -54 59 -46 4 3 23
-10 41 -29 34 -35 35 -35 122 -35 110 0 114 13 18 57 -50 22 -75 40 -88 62 -9
17 -24 31 -32 31 -8 0 -28 7 -44 15 -35 19 -31 20 -55 -11z"/>
</g>
</svg>
